<svg width="1014" height="1014" viewBox="0 0 1014 1014" fill="none" xmlns="http://www.w3.org/2000/svg">
<g clip-path="url(#clip0_168_307)">
<path d="M1013.95 506.977C1013.95 226.984 786.97 0 506.977 0C226.984 0 0 226.984 0 506.977C0 744.729 163.693 944.234 384.512 999.029V661.909H279.973V506.977H384.512V440.218C384.512 267.664 462.606 187.683 632.018 187.683C664.14 187.683 719.563 193.99 742.235 200.276V340.709C730.27 339.451 709.484 338.823 683.669 338.823C600.545 338.823 568.423 370.316 568.423 452.183V506.977H734.022L705.57 661.909H568.423V1010.24C819.457 979.926 1013.97 766.184 1013.97 506.977H1013.95Z" fill="#FB64B6"/>
<path d="M705.55 661.91L734.002 506.978H568.403V452.184C568.403 370.317 600.525 338.824 683.649 338.824C709.464 338.824 730.25 339.452 742.215 340.71V200.277C719.543 193.97 664.12 187.684 631.998 187.684C462.587 187.684 384.492 267.664 384.492 440.219V506.978H279.953V661.91H384.492V999.029C423.712 1008.76 464.736 1013.95 506.957 1013.95C527.743 1013.95 548.245 1012.68 568.382 1010.24V661.91H705.53H705.55Z" fill="white"/>
</g>
<defs>
<clipPath id="clip0_168_307">
<rect width="1013.95" height="1013.95" fill="white"/>
</clipPath>
</defs>
</svg>
