<svg width="1014" height="1014" viewBox="0 0 1014 1014" fill="none" xmlns="http://www.w3.org/2000/svg">
<g clip-path="url(#clip0_168_306)">
<path d="M506.977 91.2955C642.435 91.2955 658.476 91.8896 711.748 94.266C761.258 96.4444 787.993 104.762 805.816 111.693C829.383 120.803 846.414 131.893 864.039 149.519C881.863 167.342 892.755 184.175 901.865 207.742C908.796 225.565 917.113 252.498 919.292 301.81C921.668 355.28 922.262 371.321 922.262 506.581C922.262 642.039 921.668 658.08 919.292 711.352C917.113 760.862 908.796 787.597 901.865 805.42C892.755 828.987 881.665 846.018 864.039 863.643C846.216 881.467 829.383 892.359 805.816 901.468C787.993 908.4 761.06 916.717 711.748 918.896C658.278 921.272 642.237 921.866 506.977 921.866C371.519 921.866 355.478 921.272 302.206 918.896C252.696 916.717 225.961 908.4 208.138 901.468C184.571 892.359 167.54 881.269 149.915 863.643C132.091 845.82 121.199 828.987 112.089 805.42C105.158 787.597 96.8405 760.664 94.6621 711.352C92.2857 657.882 91.6915 641.841 91.6915 506.581C91.6915 371.123 92.2857 355.082 94.6621 301.81C96.8405 252.3 105.158 225.565 112.089 207.742C121.199 184.175 132.289 167.144 149.915 149.519C167.738 131.695 184.571 120.803 208.138 111.693C225.961 104.762 252.894 96.4444 302.206 94.266C355.478 91.8896 371.519 91.2955 506.977 91.2955ZM506.977 0C369.341 0 352.111 0.594114 298.047 2.97057C244.181 5.34702 207.148 14.0607 175.065 26.5371C141.597 39.6076 113.278 56.8369 85.1563 85.1563C56.8369 113.278 39.6076 141.597 26.5371 174.867C14.0607 207.148 5.34702 243.983 2.97057 297.849C0.594114 352.111 0 369.341 0 506.977C0 644.613 0.594114 661.843 2.97057 715.907C5.34702 769.773 14.0607 806.806 26.5371 838.888C39.6076 872.357 56.8369 900.676 85.1563 928.798C113.278 956.919 141.597 974.346 174.867 987.219C207.148 999.695 243.983 1008.41 297.849 1010.79C351.913 1013.16 369.143 1013.76 506.779 1013.76C644.415 1013.76 661.645 1013.16 715.709 1010.79C769.575 1008.41 806.608 999.695 838.691 987.219C871.961 974.346 900.28 956.919 928.402 928.798C956.523 900.676 973.95 872.357 986.823 839.087C999.299 806.806 1008.01 769.971 1010.39 716.105C1012.77 662.041 1013.36 644.811 1013.36 507.175C1013.36 369.539 1012.77 352.309 1010.39 298.245C1008.01 244.379 999.299 207.346 986.823 175.264C974.346 141.597 957.117 113.278 928.798 85.1563C900.676 57.0349 872.357 39.6076 839.087 26.7351C806.806 14.2587 769.971 5.54506 716.105 3.16861C661.843 0.594114 644.613 0 506.977 0Z" fill="#FB64B6"/>
<path d="M506.975 246.557C363.199 246.557 246.555 363.201 246.555 506.976C246.555 650.752 363.199 767.396 506.975 767.396C650.75 767.396 767.394 650.752 767.394 506.976C767.394 363.201 650.75 246.557 506.975 246.557ZM506.975 675.903C413.699 675.903 338.048 600.252 338.048 506.976C338.048 413.701 413.699 338.05 506.975 338.05C600.25 338.05 675.901 413.701 675.901 506.976C675.901 600.252 600.25 675.903 506.975 675.903Z" fill="#FB64B6"/>
<path d="M838.494 236.261C838.494 269.927 811.164 297.058 777.696 297.058C744.03 297.058 716.898 269.729 716.898 236.261C716.898 202.594 744.228 175.463 777.696 175.463C811.164 175.463 838.494 202.792 838.494 236.261Z" fill="#FB64B6"/>
</g>
<defs>
<clipPath id="clip0_168_306">
<rect width="1013.95" height="1013.95" fill="white"/>
</clipPath>
</defs>
</svg>
