<svg width="913" height="913" viewBox="0 0 913 913" fill="none" xmlns="http://www.w3.org/2000/svg">
<path d="M760.529 380.231C760.529 570.081 549.918 767.802 479.194 828.868C472.606 833.822 464.586 836.501 456.342 836.501C448.099 836.501 440.079 833.822 433.49 828.868C362.767 767.802 152.156 570.081 152.156 380.231C152.156 299.556 184.204 222.185 241.25 165.139C298.296 108.093 375.667 76.0449 456.342 76.0449C537.018 76.0449 614.389 108.093 671.435 165.139C728.481 222.185 760.529 299.556 760.529 380.231Z" stroke="#FB64B6" stroke-width="57.0349" stroke-linecap="round" stroke-linejoin="round"/>
<path d="M456.375 494.29C519.374 494.29 570.444 443.219 570.444 380.22C570.444 317.221 519.374 266.15 456.375 266.15C393.375 266.15 342.305 317.221 342.305 380.22C342.305 443.219 393.375 494.29 456.375 494.29Z" stroke="#FB64B6" stroke-width="57.0349" stroke-linecap="round" stroke-linejoin="round"/>
</svg>
